PathFileType	4	(X/Y/Z)	c:/Users/goper/Files/vsCode/490R/osim_files/C07/C07_Slow_01.trc
DataRate	CameraRate	NumFrames	NumMarkers	Units                	OrigDataRate	OrigDataStartFrame	OrigNumFrames
250.00	250.00	4	36	mm	250.0	2328	3103
                Frame#	Time	LPSIS			LASIS			LTH1			LTH2			LTH3			LTH4			LLFE			LMFE			LSH1			LSH2			LSH3			LSH4			LLMAL			LMMAL			LCAL			LMTP5			LTOE			LMTP1			RPSIS			RASIS			RTH1			RTH2			RTH3			RTH4			RLFE			RMFE			RSH1			RSH2			RSH3			RSH4			RLMAL			RMMAL			RCAL			RMTP1			RTOE			RMTP5		
		X1	Y1	Z1	X2	Y2	Z2	X3	Y3	Z3	X4	Y4	Z4	X5	Y5	Z5	X6	Y6	Z6	X7	Y7	Z7	X8	Y8	Z8	X9	Y9	Z9	X10	Y10	Z10	X11	Y11	Z11	X12	Y12	Z12	X13	Y13	Z13	X14	Y14	Z14	X15	Y15	Z15	X16	Y16	Z16	X17	Y17	Z17	X18	Y18	Z18	X19	Y19	Z19	X20	Y20	Z20	X21	Y21	Z21	X22	Y22	Z22	X23	Y23	Z23	X24	Y24	Z24	X25	Y25	Z25	X26	Y26	Z26	X27	Y27	Z27	X28	Y28	Z28	X29	Y29	Z29	X30	Y30	Z30	X31	Y31	Z31	X32	Y32	Z32	X33	Y33	Z33	X34	Y34	Z34	X35	Y35	Z35	X36	Y36	Z36

2328	9.30800	-2545.93237	992.68237	215.55019	-2680.74316	974.82043	353.85794	0.00000	0.00000	0.00000	0.00000	0.00000	0.00000	-2585.59180	627.83423	342.34412	0.00000	0.00000	0.00000	-2556.57129	507.87695	308.42203	-2577.29102	502.43616	189.22791	-2468.43091	337.12561	296.17224	0.00000	0.00000	0.00000	-2506.29932	328.70523	284.77231	-2490.12891	288.86789	274.42911	-2370.97900	140.13029	214.03290	-2413.81567	155.99217	146.51494	-2305.41968	93.66682	152.81721	-2463.51440	42.10361	256.39276	-2526.76392	48.16470	216.40092	-2507.64111	38.67782	157.29703	-2584.05542	997.62372	123.20163	-2762.57031	974.84930	112.24879	0.00000	0.00000	0.00000	0.00000	0.00000	0.00000	0.00000	0.00000	0.00000	-2845.15454	763.07837	103.44591	0.00000	0.00000	0.00000	-2788.10498	492.30225	182.08112	0.00000	0.00000	0.00000	0.00000	0.00000	0.00000	0.00000	0.00000	0.00000	-2871.75195	275.89944	49.74853	-2886.67065	97.17417	73.94463	-2876.81079	107.92090	157.58781	-2827.74219	45.11730	94.92294	-2994.83838	51.76428	226.18176	-3040.97876	65.74231	198.01419	0.00000	0.00000	0.00000
2329	9.31200	-2549.66724	992.92267	215.41542	-2684.05762	975.06488	354.27554	0.00000	0.00000	0.00000	0.00000	0.00000	0.00000	-2589.50024	627.85614	342.82388	-2671.81885	707.57715	357.80795	-2560.93848	507.93054	308.92352	-2581.99561	502.27240	189.90494	-2469.82471	336.85452	295.70853	0.00000	0.00000	0.00000	-2509.32959	329.04819	285.24472	-2492.93164	289.45087	274.79364	-2372.58130	141.82382	214.35466	-2415.60107	157.29367	146.73650	-2306.67480	96.08252	152.95905	-2463.83862	42.37778	256.45554	-2526.84302	48.21699	216.37772	-2507.77222	38.66688	157.28717	-2587.94360	997.92279	123.40613	-2766.66235	975.23254	112.88156	0.00000	0.00000	0.00000	0.00000	0.00000	0.00000	0.00000	0.00000	0.00000	-2849.36694	763.61316	104.62279	-2839.55444	500.75183	80.76961	-2791.01538	492.63461	182.61234	0.00000	0.00000	0.00000	-2897.70874	288.61252	69.76809	0.00000	0.00000	0.00000	-2874.08643	275.94241	50.16087	-2887.15967	97.13177	74.10533	-2877.19678	107.71027	158.00781	-2827.88013	45.17435	95.05615	-2995.14038	51.29455	226.02803	-3040.21875	63.79850	195.87103	-3031.21851	42.29406	125.36806
2330	9.31600	-2553.31006	993.09454	215.48375	-2687.47412	975.39697	354.64810	0.00000	0.00000	0.00000	0.00000	0.00000	0.00000	-2593.53467	627.87067	343.24686	-2675.17871	707.66614	358.40073	-2565.44775	507.84344	309.44766	-2586.80420	502.17609	190.65666	-2473.17603	337.67484	296.13681	0.00000	0.00000	0.00000	-2512.59277	329.50415	285.80469	-2496.04834	290.14685	275.29114	-2374.24951	143.53586	214.60597	-2417.48779	158.63091	146.98337	-2307.92236	98.65963	152.96913	-2464.33667	42.73777	256.58765	-2525.98755	47.73186	215.82431	-2507.89404	38.67729	157.30348	-2591.92261	998.39709	123.49955	-2770.77783	975.79193	113.52320	0.00000	0.00000	0.00000	0.00000	0.00000	0.00000	0.00000	0.00000	0.00000	-2853.47656	763.85345	105.52318	0.00000	0.00000	0.00000	-2794.07324	493.18701	183.10886	0.00000	0.00000	0.00000	-2899.87305	288.53311	70.28001	0.00000	0.00000	0.00000	-2876.99292	276.05103	50.74694	-2887.64697	96.56921	73.87024	-2877.35474	107.62423	158.26006	-2828.03223	45.14365	95.18705	-2995.34741	51.04433	225.84966	-3036.18872	62.63762	196.03172	0.00000	0.00000	0.00000
2331	9.32000	-2557.05664	993.36816	215.50125	-2690.53101	975.76837	355.00491	0.00000	0.00000	0.00000	0.00000	0.00000	0.00000	-2597.78394	627.95270	343.73447	-2678.93213	707.86975	359.01154	-2570.02832	507.86740	310.06876	-2591.78809	502.11716	191.53960	-2476.51562	338.48404	296.69592	0.00000	0.00000	0.00000	-2515.86182	330.05078	286.33783	-2496.86621	289.87122	274.59689	-2376.09937	145.29781	214.85172	-2419.46924	160.02222	147.22551	-2309.29517	101.33183	152.95859	-2464.86475	43.19497	256.65524	-2526.17773	47.85271	215.87065	-2508.00708	38.66977	157.30836	-2595.86401	998.86401	123.76437	-2774.84814	976.40533	114.28275	0.00000	0.00000	0.00000	0.00000	0.00000	0.00000	0.00000	0.00000	0.00000	-2856.90381	764.28455	106.48707	-2846.35718	501.59467	82.13071	-2797.10425	493.83911	183.64362	0.00000	0.00000	0.00000	-2901.99585	288.46573	70.73551	0.00000	0.00000	0.00000	-2879.10181	276.17651	50.97305	-2887.88013	96.50507	73.91673	-2877.48999	107.59795	158.43700	-2828.07935	45.24050	95.19510	-2992.12451	49.28318	225.19040	-3036.61401	62.37413	195.79608	0.00000	0.00000	0.00000
